<svg width="283" height="63" fill="none" xmlns="http://www.w3.org/2000/svg"><mask id="a" mask-type="alpha" maskUnits="userSpaceOnUse" x="0" y="0" width="283" height="63"><path fill="#fff" d="M0 0h283v63H0z"/></mask><g mask="url(#a)" fill="#2A4C39"><path d="m94.9 17 1.3 2.5.2.3h.4v.1l-1.3.8-.1-.2.2-.2V20l-3.1-5.7-.2-.2H92l-.1-.1 3.4-2a7 7 0 0 1 1.2-.5l1-.1c.2 0 .5 0 .7.2.3.2.6.5.7.8.3.5.4 1 .3 1.5 0 .3-.3.7-.6 1l-1.3.9L95 17Zm-.4-.6L97 15l.9-.5.3-.4c.3-.4.3-.8 0-1.3-.3-.4-.6-.7-1-.7l-.7.1-.8.4-2.5 1.4 1.3 2.4ZM104.6 12.1l1 2.7 4.5-1.8.3-.1v-.4h.2l.5 1.3h-.2l-.2-.2h-.3l-5.7 2.3v-.2l.2-.2v-.3l-2.3-6-.2-.2h-.3v-.2l5.6-2.2.2-.1.1-.4h.2l.5 1.3h-.2l-.2-.2h-.4L103.5 9l.9 2.4 3-1 .2-.2v-.4h.2l.5 1.3h-.1l-.3-.2h-.3l-3 1.2ZM114.9 8.7l.7 2.7.1.3h.4v.2l-1.5.4v-.2l.2-.2v-.3l-1.6-6.1a1 1 0 0 0-.2-.4h-.3v-.2l4-1 1.3-.3 1 .1.7.4.5 1c.2.5 0 1-.2 1.5-.3.5-.7.8-1.4 1l2.7 2.4c.1.2.3.3.5.2v.2l-1.6.4v-.1l.1-.3-.2-.2-2.4-2.2-2.8.7Zm-.2-.7 3-.8.9-.2.5-.4c.3-.3.4-.7.2-1.2 0-.5-.4-.8-.8-1h-.6l-1 .2-2.9.8.7 2.6ZM125.5 2.7l.3 2.6 3.3-.5.3-.1.1-.3h.2l.2 1.3h-.2l-.1-.2h-.4L126 6l.4 2.8.1.4h.4v.2l-1.6.3v-.2l.3-.2V9l-1-6.2v-.4h-.4v-.2l6-1h.4l.1-.4h.2l.2 1.4h-.2l-.1-.3h-.4l-5 .8ZM136.4 1.3l.1 4.3.1 1 .4.5c.4.4 1.1.5 2.2.5 1.2 0 2-.3 2.3-.8l.2-.4v-1l-.1-4.3c0-.2-.1-.3-.2-.3l-.2-.2V.4h1.5v.2l-.3.1v.4l.1 4.4v1.2c-.2.5-.6 1-1.1 1.2-.6.3-1.3.4-2.2.4-1.4 0-2.3-.1-2.9-.7l-.5-.7-.1-1.2-.2-4.4-.1-.3-.3-.2V.7h1.6l-.3.2v.4ZM151 8.6 148.5 2l-.6 5.7V8l.4.1v.2l-1.5-.2V8c.2 0 .2-.1.3-.2v-.3l.7-6.3V1l-.3-.2V.6l2 .2v.1l-.3.3.2.4 2 5.3 3-4.8.1-.4-.2-.3v-.1l2 .2v.2h-.3l-.2.4-.6 6.3v.3l.3.2V9l-1.6-.2v-.2h.3l.1-.4.6-5.8-3.9 6.1ZM161.3 6.6l-.6 2.7 4.8 1h.3l.2-.1h.2l-.4 1.4h-.1l-.1-.3-.4-.2-6-1.3.1-.2.4-.1.1-.3 1.4-6.2v-.3l-.2-.3v-.1l5.9 1.3h.3l.2-.2h.2l-.3 1.5h-.2l-.1-.4-.3-.2-4.7-1-.5 2.5 3 .7h.3l.3-.3.1.1-.3 1.4h-.2v-.4l-.4-.1-3-.6ZM171.7 9.4 171 12l-.1.4.2.2v.1l-1.5-.4V12h.4l.1-.3 2-6v-.4s0-.2-.2-.2V5l4 1.4 1.3.4.7.7.4.8v1c-.3.6-.6 1-1 1.2-.6.3-1.1.3-1.8.2l1 3.4c0 .2 0 .4.3.5v.1l-1.7-.5V14h.4v-.4l-.8-3.2-2.9-1Zm.3-.7 2.9 1 1 .2h.5c.5 0 .7-.4.9-.8.2-.5.1-1-.2-1.3l-.5-.4a10 10 0 0 0-1-.4l-2.8-1-.8 2.7ZM180.5 15.6l2.5-5.8v-.3s0-.2-.2-.3v-.1l1.5.6v.2h-.4l-.2.3-2.5 5.7v.4l.2.3v.1l-1.5-.6v-.2h.4l.2-.3ZM187.8 15.9l-1.5 2.5 4.2 2.4.4.1.2-.2.2.2-.7 1.2h-.2v-.4s0-.2-.2-.2l-5.3-3.1.1-.2h.4l.2-.3 3-5.4.2-.4-.2-.2.1-.2 5.2 3 .4.1.2-.1h.2l-.7 1.4-.2-.2v-.3l-.3-.2-4.1-2.4-1.3 2.2 2.7 1.6.3.1.3-.1h.2l-.7 1.4-.2-.2v-.3s-.1-.2-.3-.2l-2.6-1.6ZM57.7 37.5H64.8l.2-.6h.3v3.3H65l-.2-.5H53.2V39l7.4-10.1h-6.8l-.2.6h-.3v-3.3h.3l.2.4c.1.2.2.2.5.2h11v.5l-7.6 10.2ZM69.8 30v8.7l.1.4.5.3v.3h-3.7v-.3l.4-.2.1-.5v-9.1l-.6-.3V29h3.8v.3a1 1 0 0 0-.5.3v.4ZM75.1 35.1v2.6H82.2l.3-.6h.2v3.2h-.2a1 1 0 0 0-.3-.5H72v-.4c.2 0 .4 0 .4-.2l.1-.4V29.6l-.6-.3V29h9.9l.3-.6h.3v3.2H82a1 1 0 0 0-.3-.5l-.4-.1H75v2.3h4l.4-.1.2-.5h.3v3h-.3a1 1 0 0 0-.2-.5l-.5-.1h-3.9ZM87.1 37.7h6.3l.3-.6h.2v3.2h-.2a1 1 0 0 0-.3-.5l-.5-.1h-9v-.3c.3 0 .5-.1.5-.2l.1-.5v-9.1l-.6-.3V29h3.7v.3a1 1 0 0 0-.4.3c-.2 0-.2.2-.2.4v7.7h.1ZM97.8 30v8.7l.1.4.5.3v.3h-3.7v-.3l.4-.2.1-.5v-9.1l-.6-.3V29h3.7v.3a1 1 0 0 0-.4.3l-.1.4ZM102.9 32.7V39l.5.3v.3H100v-.3l.5-.2v-9.6l-.5-.3V29h4v.3c-.3 0-.4.2-.4.4 0 .1 0 .3.2.5l5.7 5.7V30l-.1-.4-.5-.3V29h3.5v.3a1 1 0 0 0-.5.3l-.1.4v9.1l.6.3v.3h-3.8v-.3c.3 0 .4-.2.4-.3v-.3l-.6-.6-5.4-5.5ZM124 30l-1.3 2.5-.2-.1c0-.2 0-.4-.2-.5a6.8 6.8 0 0 0-3.7-1.1c-.6 0-1.1.1-1.5.3-.7.2-1 .6-1 1 0 .3.1.6.5.7l1.8.3 1.5.1c1.3.1 2.3.3 3 .8l.9.9c.3.5.4 1 .4 1.6 0 1-.5 1.9-1.4 2.5-1 .6-2.1.9-3.7.9a11 11 0 0 1-4.6-1h-.3s-.2 0-.3.2l-.2-.1 1-2.6h.3v.1l.1.5 1.7.7c.7.2 1.5.3 2.3.3.6 0 1.2-.1 1.7-.3.7-.2 1-.5 1-1 0-.4-.2-.7-.7-.8l-1.6-.3-1.5-.1-1.8-.2-1-.5a2.9 2.9 0 0 1-1.3-2.5c0-1.1.5-2 1.5-2.6.8-.6 2-.8 3.3-.8.7 0 1.4 0 2 .2.7.1 1.4.4 2.2.8l.6.2c.1 0 .2 0 .4-.3v.2ZM130 34.8l-1.5 1.2v2.7l.1.4.5.3v.3h-3.7v-.3l.4-.2c.2-.1.2-.3.2-.5V30l-.2-.4-.5-.3V29h3.8v.3a1 1 0 0 0-.5.3l-.1.4v3.5l3.9-3.2c.3-.2.4-.5.4-.6 0-.2-.1-.3-.5-.4V29h4.7v.3l-.6.2-1.2 1-3.5 2.9 3.9 4.5 1 1.2.8.3v.3h-4.6v-.3c.4 0 .5-.2.5-.4v-.2l-.5-.5-2.8-3.5ZM141.3 30v8.7l.1.4.5.3v.3h-3.7v-.3l.5-.2v-9.6l-.5-.3V29h3.7v.3a1 1 0 0 0-.5.3v.4ZM161.4 30.7v3.6h-.3c0-.3 0-.5-.2-.5l-.6.3a3.8 3.8 0 0 0-1.5 2l1 .8.8.2c.3 0 .5-.1.5-.4h.3v3l-1.6-.2c-.4 0-.8-.2-1.3-.5-.6-.3-1-.7-1.4-1a6.1 6.1 0 0 1-4.5 1.8c-1.3 0-2.5-.3-3.4-1-1-.7-1.5-1.7-1.5-2.9 0-1.6 1-2.9 2.9-3.8-.9-.7-1.3-1.5-1.3-2.4 0-1 .5-1.8 1.5-2.4a5 5 0 0 1 2.7-.8 5 5 0 0 1 3 1c.8.5 1.3 1.3 1.3 2.3 0 .5-.2 1-.4 1.4-.3.4-.7.9-1.3 1.3.6.4 1.1 1 1.5 1.8.6-1 1.2-1.8 1.7-2.3.5-.6 1.2-1 2.1-1.3Zm-8.6 2.6c-.7 0-1.3.2-1.8.6a2 2 0 0 0-.7 1.5c0 .7.3 1.2.7 1.6.5.5 1.2.6 2 .6s1.4-.2 2-.6c.5-.4.8-.9.8-1.4 0-.3-.1-.6-.3-.8-.1-.4-.4-.6-.6-.8-.6-.5-1.3-.7-2-.7Zm.7-4.9c-.5 0-.9.1-1.3.3-.4.3-.6.8-.6 1.3s.2.8.5 1.2c.4.3.9.4 1.4.4.5 0 .9-.1 1.3-.3.4-.3.6-.7.6-1.3 0-.5-.2-.9-.5-1.1-.4-.3-.9-.5-1.4-.5ZM170.1 35.3v3.4l.2.4.4.3v.3H167v-.3c.3 0 .4-.1.5-.2v-9.6l-.5-.3V29h6.9l2 .1 1.2.5c.8.5 1.2 1.4 1.2 2.5 0 .8-.2 1.5-.7 2-.5.4-1.2.8-2.3 1l2 2.8c.4.5.6.9.9 1l.7.4v.3h-4.4v-.3c.3-.1.4-.2.4-.5l-.2-.6-2.1-3h-2.5v.1Zm0-2h5.1c.3-.3.6-.6.6-1 0-.5-.1-.9-.4-1a3 3 0 0 0-1.4-.3h-3.8v2.4ZM185.6 28.9c1.6 0 3 .4 4.1 1.2 1.3 1 2 2.5 2 4.3a5 5 0 0 1-2 4.2c-1 .8-2.4 1.2-4.1 1.2-1.7 0-3-.4-4.2-1.2-1.3-1-2-2.5-2-4.3a5 5 0 0 1 2-4.2c1.1-.8 2.5-1.2 4.2-1.2Zm0 2c-1.1 0-2 .3-2.6 1-.7.7-1 1.5-1 2.5s.4 1.8 1 2.4c.6.7 1.5 1 2.6 1 1 0 2-.3 2.6-1 .7-.7 1-1.4 1-2.4s-.4-1.9-1-2.6c-.7-.6-1.5-1-2.6-1ZM196.9 37.7h5.7l.3-.6h.3v3.2h-.3l-.2-.5h-9.9v-.6L199 31h-5.5l-.2.6h-.3v-3.2h.3l.2.5.5.1h9.1v.5l-6.1 8.1ZM207.5 35.1v2.6H214.6l.3-.6h.3v3.2h-.3l-.2-.5h-10.2v-.4c.2 0 .4 0 .4-.2.2 0 .2-.2.2-.4V30l-.2-.4-.4-.3V29h9.8l.3-.6h.3v3.2h-.3a1 1 0 0 0-.3-.5l-.4-.1h-6.3v2.3h3.9l.4-.1.3-.5h.3v3h-.3a1 1 0 0 0-.3-.5l-.4-.1h-4ZM219.8 30.8v7.8l.1.5.5.2v.3h-3.8v-.3l.5-.2.1-.5V27.3l-.6-.3v-.2h4.3v.2c-.2 0-.3.3-.3.5 0 .1 0 .3.2.5l7 7.4v-8.1l-.5-.3v-.2h3.7v.2c-.2 0-.4.2-.5.3V39l.5.2v.3h-4v-.3c.3 0 .4-.2.4-.4l-.5-.7-7.1-7.4ZM95.1 56.2c-.8-.2-1.2-.6-1.2-1.3 0-.6.2-1 .5-1.4h.2c0 .2.2.4.6.4H97c.7 0 1.2 0 1.5.2.3.1.5.4.7.7l.2 1.5v4.4H94V58c0-.4.2-.8.4-1l.6-.7Zm3.6 2.3v-1.2c0-.4 0-.7-.2-.9l-1-.2H96l-.7.8c-.2.3-.3.5-.3.8v.6h3.8ZM105.2 58.4l-.3-.4.6-.5.1-.7-.1-.4-.2-.1-.7-.1c-.6-.1-1-.2-1.2-.4-.2-.2-.4-.6-.4-1l.1-.7.3-.6h.2c0 .3.3.4.6.4l1 .1c.8 0 1.1.6 1.1 1.6v.6a3 3 0 0 1-.3 1.4 3 3 0 0 1-.8.8ZM110 60.7v-.5c0-1.4.6-2.6 1.5-3.7 0-.2-.1-.3-.4-.4l-.7-.2a1 1 0 0 1-.4-.5l-.1-.7c0-.5.1-1 .4-1.3h.2c0 .1 0 .2.2.3l.4.1.4.1c.6 0 .8.3.8.8v.5l-.1.4v.2c.9-.6 1.3-1.3 1.3-2.2.5.1 1 .3 1.3.6.3.4.6.7.8 1.2.3.5.4 1 .4 1.7 0 .9-.1 1.7-.3 2.6l-.2 1H112l.5-2.3h2.9c0-.7 0-1.2-.5-1.6-.3-.5-.7-.6-1.3-.6-.7 0-1.4.3-1.9 1-.5.8-.8 1.9-.8 3.3v.2h-.8ZM126 53.4c0 .2.2.3.5.5l.3.1c.6.2.8.7.8 1.3v.6l-.6.9c-.4.5-.7 1-.9 1.6l-.4 2.3h-5.3c0-.3 0-1-.2-1.8v-1c0-.6 0-1.2.2-1.8-.7-.2-1-.7-1-1.5 0-.5.1-.9.3-1.3h.2c.1.3.3.4.7.5h.4l.7.4c.2.3.2.5.2.9 0 .3 0 .6-.2.9l-.8.2v.9c0 .3 0 .8.2 1.3h1c.5-.8 1-1.6 1.2-2.3-.7-.2-1-.7-1-1.5 0-.5.1-.9.3-1.3h.2c0 .3.3.4.7.5h.5l.5.3.3.4.1.6c0 .3 0 .6-.2.9l-.8.2c-.3.9-.6 1.7-1 2.2h2.4l.8-1.4.2-.5c0-.1 0-.3-.2-.4l-.3-.2c-.3-.2-.5-.6-.5-1.2 0-.2 0-.4.2-.7 0-.3.2-.5.3-.7h.2v.1ZM135 58.5v-1c0-.5 0-.8-.2-1 0-.2-.4-.3-.9-.3h-1.5c-.4 0-.8-.2-1-.4-.2-.3-.3-.6-.3-1 0-.5.1-1 .4-1.3h.2c0 .2.3.4.6.4h1.6c.6 0 1.1.2 1.4.4.3.4.4 1 .4 2v.8c0 .4 0 .8-.3 1.3h1l-.4 2.2h-5.1l.4-2.2h3.8ZM147.5 56.2h-.2c-.5 0-.8-.2-1-.4-.2-.3-.3-.6-.3-1 0-.5.1-.9.5-1.3h.1c0 .2.3.4.6.4h2.3c.7 0 1.2.2 1.4.6.3.3.4 1 .4 1.7V60c0 .4-.2.7-.5.8h-.2v-3.4c0-.6-.2-1-.3-1-.2-.3-.5-.3-.8-.3H148l-.2.5-.3 1v.2c0 .2 0 .6.2 1l.1.8v1.2h-2.5l.5-2.3h1V58c-.1-.4 0-1 .4-1.4l.2-.3ZM157.2 60.8h-.2v-4.3l-.3-.2a5 5 0 0 0-.8-.3c-.7-.1-1-.6-1-1.3 0-.4.2-.9.5-1.3h.2c0 .2.2.4.7.5l.5.1c.4 0 .6.2.8.4.2.2.2.5.2 1V60c0 .4-.2.7-.6.8ZM162.8 56.2c-.4 0-.6-.2-.9-.3-.2-.2-.4-.5-.4-1 0-.6.2-1 .5-1.4h.2c0 .2.2.4.6.4h3.7c.3 0 .5 0 .6.2.2 0 .2.3.2.6v.5c0 .2-.1.5-.3.7l-.4.6-.1.6.2 1 .1 1.2c0 .4-.1.7-.4 1-.2.3-.5.4-.7.5l-.1-.2v-1.9l.1-1.6c.1-.4.4-.8.6-1h-2.8c-.3.3-.5.7-.5 1.2v.5l.1 1.2c0 .5-.2 1-.4 1.2-.3.3-.6.5-1 .5l-.1-.1.2-.8v-1c0-.7.1-1.2.3-1.7.1-.3.3-.7.7-1ZM171.2 53.5h.3c0 .2.2.4.6.4h2.8c.4 0 .8.1 1 .3.2.3.3.7.3 1.4v.6c0 .6 0 1-.2 1.2l-.7.8-.7.6c-.4.3-.6.6-.6 1v.9l-.5.1c-.4 0-.5-.2-.5-.7 0-.3 0-.6.2-.9l.8-.8.8-.6.5-.5V56.7c0-.4-.2-.7-.7-.7h-2.4c-.5 0-.9 0-1-.3-.3-.3-.4-.6-.4-1s.1-.9.4-1.2Zm.5 3.6h.2v5c0 .5-.2.7-.6.9l-.2-.1v-4.6c0-.5.2-1 .6-1.2ZM181.9 60.8h-.2v-3.6l-.1-.7-.3-.2a5 5 0 0 0-.7-.3c-.7-.1-1-.6-1-1.3 0-.4.1-.9.4-1.3h.2c0 .2.3.4.7.5l.6.1c.4 0 .6.2.8.4l.2 1V60c0 .4-.2.7-.6.8ZM187.4 53.9h2c.6 0 1 .2 1.4.4.2.4.3 1 .3 2v3.6c0 .5-.1.7-.4.9l-.3-.1v-3.4c0-.4 0-.7-.2-1 0-.1-.4-.3-1-.3h-1.8l-.7-.1-.4-.5-.2-.6c0-.6.2-1 .5-1.5h.2c0 .5.3.6.6.6Z"/></g></svg>